<svg width="60" height="60" viewBox="0 0 60 60" fill="none" xmlns="http://www.w3.org/2000/svg">
<g id="24 / software / cloud">
<path id="icon" fill-rule="evenodd" clip-rule="evenodd" d="M45 47.5C51.9036 47.5 57.5 41.9036 57.5 35C57.5 28.7124 52.8577 23.5091 46.8136 22.6306C44.6875 15.2641 37.8965 10 30 10C24.1336 10 18.7725 12.9127 15.5497 17.6257C8.16758 18.5837 2.5 24.8969 2.5 32.5C2.5 40.7843 9.21573 47.5 17.5 47.5H45ZM52.5 35C52.5 39.1421 49.1421 42.5 45 42.5H17.5C11.9772 42.5 7.5 38.0228 7.5 32.5C7.5 27.1261 11.7484 22.7179 17.0991 22.5079L18.4767 22.4538L19.166 21.26C21.3857 17.4161 25.481 15 30 15C36.1278 15 41.3259 19.4407 42.3274 25.4154L42.6844 27.5454L44.8437 27.5016C44.8826 27.5009 44.9021 27.5006 44.9216 27.5004C44.9412 27.5002 44.9608 27.5001 45 27.5C49.1421 27.5 52.5 30.8579 52.5 35Z" fill="#D50101"/>
</g>
</svg>
