<svg width="60" height="60" viewBox="0 0 60 60" fill="none" xmlns="http://www.w3.org/2000/svg">
<g id="24 / maps / pin">
<path id="icon" fill-rule="evenodd" clip-rule="evenodd" d="M30 58.3189L31.6443 56.8831C45.4717 44.8093 52.5 34.2669 52.5 25C52.5 11.8767 42.2574 2.5 30 2.5C17.7426 2.5 7.5 11.8767 7.5 25C7.5 34.2669 14.5283 44.8093 28.3557 56.8831L30 58.3189ZM30 51.6585C18.2665 41.0839 12.5 32.1231 12.5 25C12.5 14.7415 20.4103 7.5 30 7.5C39.5897 7.5 47.5 14.7415 47.5 25C47.5 32.1231 41.7335 41.0839 30 51.6585ZM30 12.5C36.9036 12.5 42.5 18.0964 42.5 25C42.5 31.9036 36.9036 37.5 30 37.5C23.0964 37.5 17.5 31.9036 17.5 25C17.5 18.0964 23.0964 12.5 30 12.5ZM22.5 25C22.5 20.8579 25.8579 17.5 30 17.5C34.1421 17.5 37.5 20.8579 37.5 25C37.5 29.1421 34.1421 32.5 30 32.5C25.8579 32.5 22.5 29.1421 22.5 25Z" fill="#D50101"/>
</g>
</svg>
